<svg width="75" height="44" viewBox="0 0 75 44" fill="none" xmlns="http://www.w3.org/2000/svg">
<path d="M10.2342 9.035C9.8136 8.52637 9.28335 8.11954 8.68317 7.845C8.11351 7.58813 7.49792 7.44868 6.87317 7.435C6.18322 7.41247 5.49582 7.52947 4.85217 7.779C4.27294 8.00662 3.7472 8.35189 3.30817 8.793C2.87917 9.23 2.54717 9.753 2.33417 10.328C1.88861 11.584 1.88861 12.955 2.33417 14.211C2.54517 14.791 2.87817 15.318 3.30817 15.759C3.74717 16.2 4.27317 16.546 4.85217 16.772C5.49617 17.022 6.18317 17.14 6.87417 17.117C7.49859 17.1032 8.11383 16.9638 8.68317 16.707C9.28304 16.432 9.81319 16.0252 10.2342 15.517L9.17417 14.695C8.93417 15.053 8.61417 15.349 8.24117 15.562C7.8262 15.8021 7.3535 15.9241 6.87417 15.915C6.37966 15.9366 5.88643 15.8495 5.42917 15.66C5.01576 15.4951 4.6419 15.2446 4.33217 14.925C4.0241 14.5855 3.78983 14.1857 3.64417 13.751C3.33018 12.7982 3.33018 11.7698 3.64417 10.817C3.79017 10.383 4.02417 9.985 4.33217 9.647C4.63617 9.317 5.00717 9.055 5.42017 8.879C5.87754 8.68993 6.37074 8.60324 6.86517 8.625C7.34517 8.615 7.81717 8.738 8.23317 8.978C8.60617 9.19 8.92617 9.487 9.16617 9.844L10.2262 9.023L10.2342 9.035V9.035ZM13.3372 16.895H14.6342V12.167C14.6057 11.4865 14.7466 10.8096 15.0442 10.197C15.2582 9.78 15.5632 9.417 15.9362 9.134C16.2121 8.91807 16.5319 8.76515 16.8732 8.686C17.0572 8.654 17.2432 8.632 17.4302 8.621C18.3852 8.621 19.0402 8.894 19.3952 9.441C19.7922 10.161 19.9762 10.978 19.9272 11.798V16.896H21.2242V11.041C21.2874 10.0775 20.9866 9.12528 20.3812 8.373C19.8112 7.76 18.9362 7.454 17.7582 7.454C17.4482 7.454 17.1422 7.498 16.8452 7.581C16.5405 7.66441 16.2465 7.78287 15.9692 7.934C15.6992 8.082 15.4492 8.264 15.2242 8.476C15.0082 8.678 14.8242 8.91 14.6752 9.166H14.6352V2H13.3372V16.896V16.895ZM31.5522 12.307V12.976C31.5542 13.366 31.4972 13.756 31.3842 14.129C31.2805 14.4786 31.1019 14.8014 30.8608 15.0749C30.6197 15.3485 30.322 15.5662 29.9882 15.713C29.6007 15.8796 29.1819 15.9611 28.7602 15.952C28.4982 15.952 28.2372 15.921 27.9822 15.862C27.7347 15.8055 27.4994 15.7053 27.2872 15.566C27.0804 15.4303 26.909 15.2472 26.7872 15.032C26.6565 14.7933 26.5916 14.5241 26.5992 14.252C26.59 14.0464 26.6288 13.8414 26.7127 13.6534C26.7965 13.4654 26.923 13.2995 27.0822 13.169C27.423 12.8956 27.8176 12.697 28.2402 12.586C28.7032 12.4589 29.178 12.3791 29.6572 12.348C30.1472 12.315 30.5572 12.298 30.8842 12.298L31.5522 12.307V12.307ZM30.9052 11.244C30.3592 11.244 29.7532 11.27 29.0872 11.322C28.4496 11.3747 27.8221 11.5126 27.2212 11.732C26.665 11.9251 26.1656 12.2536 25.7682 12.688C25.3576 13.1813 25.1499 13.8123 25.1872 14.453C25.1772 14.861 25.2692 15.264 25.4532 15.627C25.6259 15.9564 25.8674 16.2449 26.1612 16.473C26.4622 16.707 26.8052 16.881 27.1712 16.986C27.5552 17.098 27.9512 17.155 28.3512 17.154C29.0066 17.1714 29.6566 17.0308 30.2462 16.744C30.8081 16.4319 31.274 15.9719 31.5932 15.414H31.6332C31.6332 15.663 31.6432 15.919 31.6632 16.181C31.6812 16.444 31.7132 16.682 31.7562 16.896H32.9842C32.9383 16.5783 32.903 16.2591 32.8782 15.939C32.8459 15.5746 32.8349 15.2087 32.8452 14.843V10.74C32.8582 10.24 32.7652 9.743 32.5712 9.283C32.4023 8.89741 32.1539 8.55186 31.8422 8.269C31.5316 7.99502 31.1661 7.79046 30.7702 7.669C30.3546 7.53745 29.9211 7.471 29.4852 7.472C27.7552 7.472 26.4582 7.918 25.5962 8.811L26.3822 9.738C27.1445 9.03007 28.1499 8.64232 29.1902 8.655C30.7622 8.655 31.5472 9.449 31.5472 11.039V11.277L30.9052 11.245V11.244ZM37.1512 7.677C37.1782 8.019 37.2012 8.38 37.2212 8.76C37.2402 9.14 37.2492 9.455 37.2492 9.704V16.896H38.5472V12.167C38.5187 11.4865 38.6595 10.8096 38.9572 10.197C39.1712 9.78 39.4752 9.417 39.8492 9.134C40.1251 8.91807 40.4449 8.76515 40.7862 8.686C40.9672 8.65 41.1502 8.624 41.3342 8.608C42.2892 8.608 42.9442 8.882 43.2992 9.429C43.6964 10.148 43.8809 10.9651 43.8312 11.785V16.895H45.1292V11.043C45.1924 10.0795 44.8916 9.12728 44.2862 8.375C43.7212 7.762 42.8492 7.456 41.6702 7.456C41.3612 7.456 41.0542 7.5 40.7572 7.583C40.4525 7.66643 40.1586 7.78488 39.8812 7.936C39.6073 8.0797 39.3529 8.25781 39.1242 8.466C38.9092 8.668 38.7242 8.9 38.5762 9.156H38.5352V8.416C38.5352 8.173 38.5182 7.926 38.4852 7.678H37.1512V7.677ZM50.7782 10.8C51.1162 9.96034 51.7643 9.28289 52.5882 8.908C53.0101 8.71515 53.4693 8.61719 53.9332 8.621C54.4332 8.614 54.9272 8.711 55.3862 8.908C55.8022 9.086 56.1762 9.348 56.4882 9.676C56.7902 10 57.0242 10.383 57.1752 10.8C57.3352 11.24 57.4152 11.704 57.4132 12.171C57.4332 12.669 57.3492 13.165 57.1672 13.628C56.9972 14.05 56.7402 14.429 56.4102 14.741C55.745 15.3662 54.867 15.7151 53.9542 15.717C53.4896 15.7213 53.0297 15.6233 52.6072 15.43C52.2018 15.2451 51.8353 14.9848 51.5272 14.663C51.2158 14.337 50.9685 13.9554 50.7982 13.538C50.4446 12.6596 50.4446 11.6784 50.7982 10.8H50.7782V10.8ZM49.3122 19.769C49.8599 20.3704 50.5299 20.8477 51.2772 21.169C52.0576 21.4814 52.8927 21.6344 53.7332 21.619C54.5957 21.6537 55.4548 21.4927 56.2462 21.148C56.8322 20.8765 57.3466 20.4718 57.7482 19.966C58.1024 19.5071 58.3513 18.9759 58.4772 18.41C58.5971 17.886 58.6602 17.3505 58.6652 16.813V7.677H57.3682V9.212H57.3272C56.8793 8.58858 56.2712 8.09792 55.5672 7.792C55.2706 7.66453 54.9602 7.57223 54.6422 7.517C54.3529 7.46645 54.0598 7.44036 53.7662 7.439C53.1229 7.43205 52.4849 7.55625 51.8912 7.804C51.3354 8.03716 50.8336 8.38234 50.4172 8.818C50.0002 9.258 49.6692 9.773 49.4432 10.336C49.2047 10.931 49.0851 11.567 49.0912 12.208C49.0856 12.851 49.2126 13.4883 49.4642 14.08C49.7012 14.64 50.0492 15.145 50.4872 15.566C50.9272 15.986 51.4442 16.317 52.0102 16.542C52.6059 16.7805 53.2425 16.9008 53.8842 16.896C54.5418 16.8939 55.1917 16.7542 55.7922 16.486C56.422 16.1986 56.9539 15.7331 57.3222 15.147H57.3632V16.789C57.3662 17.265 57.3032 17.739 57.1752 18.197C57.0612 18.624 56.8552 19.021 56.5692 19.358C56.2664 19.702 55.8863 19.9693 55.4602 20.138C54.9282 20.342 54.3602 20.44 53.7902 20.425C53.0806 20.4367 52.3786 20.2779 51.7432 19.962C51.1596 19.6733 50.6522 19.2513 50.2622 18.73L49.3122 19.769V19.769ZM63.9092 11.559C63.9092 11.176 64.0012 10.797 64.1752 10.455C64.3522 10.101 64.5922 9.781 64.8832 9.511C65.1842 9.231 65.5332 9.007 65.9142 8.851C66.3027 8.68682 66.7204 8.60281 67.1422 8.604C67.5461 8.58004 67.9507 8.64069 68.3298 8.78207C68.709 8.92344 69.0545 9.14242 69.3442 9.425C69.6077 9.71218 69.8118 10.0487 69.9446 10.4151C70.0775 10.7816 70.1364 11.1707 70.1182 11.56H63.9082L63.9092 11.559ZM71.5302 12.623V12.048C71.5335 11.4419 71.4337 10.8397 71.2352 10.267C71.0502 9.72917 70.7595 9.23378 70.3802 8.81C69.9957 8.38592 69.5275 8.04611 69.0052 7.812C68.4166 7.55569 67.78 7.4285 67.1382 7.439C66.5109 7.43383 65.8893 7.55808 65.3122 7.804C64.7583 8.0401 64.2574 8.3849 63.8392 8.818C63.4143 9.26027 63.0806 9.78185 62.8572 10.353C62.6177 10.9676 62.4982 11.6224 62.5052 12.282C62.4985 12.943 62.6222 13.5988 62.8692 14.212C63.0982 14.782 63.4342 15.302 63.8592 15.746C64.2852 16.184 64.7972 16.529 65.3622 16.76C65.9634 17.0061 66.6076 17.1302 67.2572 17.125C67.9921 17.1309 68.7196 16.977 69.3892 16.674C70.1062 16.3271 70.7296 15.8134 71.2072 15.176L70.2042 14.355C69.9091 14.8072 69.516 15.1872 69.0542 15.467C68.5142 15.799 67.8902 15.967 67.2572 15.951C66.8185 15.9557 66.3837 15.8692 65.9802 15.697C65.1901 15.3577 64.5582 14.7312 64.2122 13.944C64.0269 13.533 63.9133 13.0933 63.8762 12.644L71.5302 12.623V12.623Z" fill="white"/>
<path d="M3.125 41.523H6.425V27.26H6.477L15.647 41.523H19.837V22.925H16.534V36.741H16.485L7.48 22.925H3.125V41.523V41.523ZM25.105 36.269C25.5607 37.4195 26.2522 38.4619 27.135 39.329C28.0161 40.1953 29.0691 40.8671 30.226 41.301C31.4851 41.7771 32.822 42.0138 34.168 41.999C35.53 41.999 36.88 41.745 38.151 41.252C39.3148 40.7973 40.3755 40.1134 41.27 39.241C42.1551 38.3666 42.8514 37.3201 43.316 36.166C43.813 34.904 44.056 33.555 44.033 32.197C44.0527 30.8133 43.8037 29.4389 43.3 28.15C42.8397 26.9863 42.1426 25.931 41.253 25.051C40.3648 24.1834 39.3014 23.5158 38.134 23.093C36.8577 22.6347 35.5077 22.4164 34.152 22.449C32.806 22.4343 31.4691 22.6711 30.21 23.147C29.0535 23.5857 28.0011 24.2608 27.12 25.129C26.2306 26.0139 25.5337 27.073 25.073 28.24C24.5848 29.5379 24.3512 30.9177 24.385 32.304C24.3669 33.6609 24.616 35.0082 25.118 36.269H25.106H25.105ZM28.29 29.492C28.5817 28.7102 29.0225 27.9926 29.588 27.379C30.1505 26.7715 30.8333 26.2879 31.593 25.959C32.4194 25.6063 33.3106 25.4311 34.209 25.445C35.1084 25.4331 36.0005 25.6078 36.829 25.958C37.593 26.285 38.281 26.768 38.847 27.378C39.412 27.9921 39.8524 28.7101 40.144 29.492C40.4472 30.3214 40.597 31.199 40.586 32.082C40.596 33.022 40.441 33.955 40.128 34.841C39.8431 35.646 39.402 36.3869 38.83 37.021C38.2654 37.6377 37.578 38.1296 36.812 38.465C35.9857 38.8235 35.0927 39.0024 34.192 38.99C33.2955 39.0034 32.4065 38.8244 31.585 38.465C30.8237 38.1271 30.1406 37.6351 29.579 37.02C29.0071 36.386 28.5663 35.6451 28.282 34.84C27.9703 33.9543 27.8166 33.0208 27.828 32.082C27.8205 31.194 27.9757 30.3121 28.286 29.48L28.29 29.492V29.492ZM51.978 41.523H55.015L59.313 27.363H59.366L63.68 41.523H66.824L72.219 22.925H68.866L65.223 36.322H65.17L61.077 22.925H57.827L53.656 36.322H53.603L50.119 22.925H46.489L51.978 41.523Z" fill="#00C26F"/>
</svg>
