<?xml version="1.0" encoding="UTF-8"?> <svg xmlns="http://www.w3.org/2000/svg" width="60" height="60" viewBox="0 0 60 60" fill="none"><path fill-rule="evenodd" clip-rule="evenodd" d="M30 0C46.5686 -1.42031e-05 60 13.4315 60 30C60 46.5685 46.5686 60 30 60C13.4315 60 0 46.5685 0 30C0 13.4315 13.4315 0 30 0ZM30.1121 52.9972C17.4729 52.9972 7.22689 42.7512 7.22689 30.1121C7.22689 17.4729 17.4729 7.22689 30.1121 7.22689C38.7252 7.22689 46.2269 11.9851 50.1322 19.0163C51.385 21.2719 49.5327 23.7654 46.9524 23.7654C45.4191 23.7654 44.0654 22.8361 43.2261 21.5529C40.4304 17.2781 35.6011 14.4538 30.1121 14.4538C21.4642 14.4538 14.4538 21.4642 14.4538 30.1121C14.4538 38.7599 21.4642 45.7703 30.1121 45.7703C35.9056 45.7703 40.9642 42.6239 43.6724 37.9466C44.4765 36.5579 45.8727 35.5322 47.4775 35.5322C49.9598 35.5322 51.7895 37.8776 50.7036 40.1099C46.9925 47.7391 39.1663 52.9972 30.1121 52.9972Z" fill="white"></path></svg> 