<?xml version="1.0" encoding="utf-8"?>
<!-- Generator: Adobe Illustrator 27.0.0, SVG Export Plug-In . SVG Version: 6.00 Build 0)  -->
<svg version="1.1" id="Layer_1" xmlns="http://www.w3.org/2000/svg" xmlns:xlink="http://www.w3.org/1999/xlink" x="0px" y="0px"
	 viewBox="0 0 1080 1080" style="enable-background:new 0 0 1080 1080;" xml:space="preserve">
<style type="text/css">
	.st0{fill:#FFFFFF;}
</style>
<g>
	<path class="st0" d="M50.4,297c-0.8-42.4,2.9-86,11-129.2c0.5-2.6,0.6-5.3,1.3-7.9c2.5-9.8,10-16.3,19.7-17.3
		c8.4-0.9,17.2,4.1,21.5,12.4c5.3,10.1,10.5,20.3,15.7,30.5c53.3,104,106.5,208.1,159.8,312.1c4.1,8,8.5,15.8,12.2,23.9
		c2,4.3,4.8,5.6,9.3,5.6c55.9-0.1,111.8-0.1,167.6-0.1c104.7,0,209.4-0.2,314.1,0.3c11,0.1,15.8-3,20.5-12.8
		C860,395.2,917.4,276.3,974.6,157.2c4.9-10.3,14.2-16,23.6-14.5c11,1.7,18.1,9.7,19.7,21.4c2.7,20,7,39.8,8.4,60
		c1,14.8,2.5,29.6,2.8,44.5c0.6,29,0.8,58-1.2,86.9c-5,73.9-17.8,146.3-40.3,216.9c-32,100.7-81.1,192.3-148.3,273.9
		c-48.8,59.3-105.2,110.3-167.9,154.4c-38.3,26.9-78.9,50-120.1,72.1c-7.6,4.1-15.4,4.1-23,0.1c-52.5-27.8-103.4-58.1-150.6-94.4
		C246,877.3,152.4,748.6,98.2,591.5c-20.3-58.8-33.8-119.1-41.3-180.7C52.6,373.6,50,336.2,50.4,297z M545,571.1
		c-73,0-146,0-219.1,0c-8.7,0-8.8,0-4.7,8c35.3,68.9,70.7,137.7,106,206.6c36.6,71.4,73.1,142.9,109.7,214.3
		c0.8,1.7,1.3,4.3,3.2,4.5c2.5,0.2,2.8-2.8,3.7-4.5c20.6-38.5,41.2-77,61.8-115.5c54.6-102,109.1-204,163.7-306.1
		c3.9-7.3,3.8-7.3-4.7-7.3C691.4,571.1,618.2,571.1,545,571.1z M484.8,998.1c0.4-0.3,0.9-0.6,1.3-0.9
		C356.6,744.6,227.2,492,97.7,239.4c-0.5,0.2-1.1,0.3-1.6,0.5c-8.2,136.6,11.7,268.8,66.2,394.9
		C229.9,791.2,339.8,910.3,484.8,998.1z M596.1,995.8c0.3,0.2,0.6,0.5,1,0.7c1.2-0.6,2.4-1.1,3.5-1.8
		C702.4,932.4,788,853,853.8,753.1c79.8-121.3,120.4-255.6,130.3-399.8c2-29.1,1.6-58.3,1.1-87.5c-0.1-7.6-1-15.3-1.6-24.6
		c-1.8,3.4-2.8,5.2-3.7,7.1c-21.3,44.1-42.5,88.3-63.8,132.4c-27.8,57.5-54.6,115.5-83.7,172.3c-31.5,61.6-65,122.2-97.6,183.2
		c-39.5,73.8-79,147.6-118.4,221.4C609.6,970.3,602.8,983.1,596.1,995.8z"/>
	<path class="st0" d="M540.3,4.1c3.2-0.3,6.3,0.7,9.4,1.6C658.3,38.8,766.9,72,875.5,105.2c12.1,3.7,19.3,14.1,17.4,24.8
		c-2,11.5-11.8,19.6-23,18.8c-2.6-0.2-5.2-0.9-7.8-1.7c-104.6-31.9-209.2-63.8-313.8-95.8c-5.7-1.8-10.9-1.8-16.7,0
		c-101.5,31.1-203,62.1-304.5,93.1c-5.3,1.6-10.6,3.2-16.3,1.8c-9.5-2.3-16.5-10.6-17.1-20.5c-0.6-9.4,5.6-18.6,15.4-21.7
		c16-5.1,32-9.9,48.1-14.8c89.6-27.4,179.3-54.7,269-82.1C530.8,5.6,535.2,3.7,540.3,4.1z"/>
</g>
</svg>
