<svg class="banner__title-logo" xmlns="http://www.w3.org/2000/svg" xmlns:xlink="http://www.w3.org/1999/xlink" width="88.37" height="87.97" viewBox="0 0 88.37 87.97">
                <defs>
                  <linearGradient id="bannerLogo_linear-gradient" x1="85.01" y1="2.67" x2="7.59" y2="81.01" gradientUnits="userSpaceOnUse">
                    <stop offset="0" stop-color="#35f8fd"></stop>
                    <stop offset="0.11" stop-color="#3cf4fd"></stop>
                    <stop offset="0.27" stop-color="#50e8fc"></stop>
                    <stop offset="0.46" stop-color="#71d6fb"></stop>
                    <stop offset="0.67" stop-color="#9ebbfa"></stop>
                    <stop offset="0.91" stop-color="#d79af9"></stop>
                    <stop offset="1" stop-color="#f08cf8"></stop>
                  </linearGradient>
                </defs>
                <g id="bannerLogo">
                  <path d="M33.83,34.39A2.84,2.84,0,0,1,35,34.1L76.4,34l.45,0,0,.07h7.77a3.56,3.56,0,0,0,3.56-3.54l.16-25S87.75.48,83.66,0L30.84.37c-1.11,0-2.22.07-3.32.19a30.16,30.16,0,0,0-9,2.3l-.7.3-.11,0a28.47,28.47,0,0,0-3.52,1.9,23.77,23.77,0,0,0-5.76,5,30.19,30.19,0,0,0-2.71,3.47c-.47.63-1,1.4-1.57,2.33A28.65,28.65,0,0,0,0,30.84V48.29a1.43,1.43,0,0,0,1.43,1.43H8.61A1.42,1.42,0,0,0,10,48.16a34.92,34.92,0,0,1-.18-3.56A34.32,34.32,0,0,1,69.5,21.42a1.43,1.43,0,0,1-1,2.39H31a13.2,13.2,0,0,0-11.15,6.26,12.74,12.74,0,0,0-.34,12.8,13.51,13.51,0,0,0,3.32,3.95,13.13,13.13,0,0,0,4.75,2.42,15,15,0,0,0,4.44.46H54.32a2.65,2.65,0,0,1,1.73.71A2.87,2.87,0,0,1,56.87,52,2.65,2.65,0,0,1,54.24,55l-42.73.12s0,0,0,0H3.56A3.55,3.55,0,0,0,0,58.65V80.43S-.26,87.23,4.81,88l53.31-.48A29.58,29.58,0,0,0,85,70.59,32,32,0,0,0,88,56.84l.1-16a1.42,1.42,0,0,0-1.42-1.44h-7a1.42,1.42,0,0,0-1.42,1.55,35.12,35.12,0,0,1,0,7.25,34.34,34.34,0,0,1-59.47,19.6,1.43,1.43,0,0,1,1-2.41H55.56a12,12,0,0,0,4-.57A14,14,0,0,0,63.39,63a12.94,12.94,0,0,0,5-6.5,13.3,13.3,0,0,0,.69-3.65A13.65,13.65,0,0,0,68.65,49a12.4,12.4,0,0,0-1.22-2.91,13.18,13.18,0,0,0-3.29-3.78,13.44,13.44,0,0,0-5-2.41,11.85,11.85,0,0,0-3.82-.44L35,39.41a2.74,2.74,0,0,1-1.92-.83,2.64,2.64,0,0,1-.65-1.18,2.64,2.64,0,0,1,1.37-3Z" fill="url(#bannerLogo_linear-gradient)"></path>
                </g>
              </svg>