<svg width="112" height="131" viewBox="0 0 112 131" fill="none" xmlns="http://www.w3.org/2000/svg">
<path fill-rule="evenodd" clip-rule="evenodd" d="M111.626 96.461L104.32 115.479C103.419 117.858 101.105 119.456 98.896 119.456H74.43C71.887 119.456 70.006 117.858 68.673 115.479L60.363 93.551C60.2141 93.1624 59.9512 92.8278 59.6087 92.5913C59.2662 92.3549 58.8602 92.2275 58.444 92.226H53.214V88.118H58.444C59.6928 88.1228 60.9109 88.5052 61.9384 89.215C62.9658 89.9248 63.7545 90.9287 64.201 92.095L72.511 114.024C72.812 114.816 74.096 115.35 74.43 115.35H98.896C99.41 115.35 100.182 114.816 100.482 114.024L104.096 105.841H77.747V101.735H105.139L107.689 95.006C107.931 94.456 107.847 93.675 107.458 93.112C107.271 92.837 107.019 92.6123 106.725 92.4578C106.43 92.3033 106.102 92.2237 105.77 92.226H73.136V88.118H105.77C107.793 88.118 109.687 89.112 110.837 90.779C111.986 93.236 112.244 94.569 111.626 96.461ZM72.176 24.287C70.899 23.303 69.756 22.508 68.191 21.834L102.386 9.627L77.499 29.919C76.029 27.866 74.278 25.906 72.176 24.287ZM79.777 40.572C82.209 46.746 85.873 51.736 90.667 57.246C92.716 58.458 95.032 60.283 97.954 62.189C98.6223 62.6223 99.1686 63.2195 99.5408 63.9237C99.9129 64.6279 100.099 65.4157 100.08 66.212L99.986 74.194C99.9769 74.9182 99.775 75.6268 99.401 76.247L98.286 79.229C96.321 81.351 93.99 82.667 91.513 82.667H91.476L84.191 82.629L84.126 81.907C80.057 77.688 76.156 74.245 70.666 71.946C65.891 69.716 60.67 69.101 55.886 68.622C49.643 77.237 46.491 87.297 46.491 97.814C46.491 105.764 48.249 113.706 51.719 120.484C52.829 122.755 54.122 124.968 55.896 127.062L57.845 130.586L53.821 130.246C47.126 130.024 41.396 128.622 34.462 126.081C26.4679 122.764 19.3498 117.642 13.665 111.116C12.8801 110.207 12.125 109.272 11.401 108.314H11.306L11.308 108.192C3.9731 98.5123 0.00222298 86.7009 0 74.556C0 62.331 3.88301 50.727 11.23 40.998C17.814 32.277 26.972 25.599 37.218 21.983C36.317 14.678 39.322 7.317 45.232 2.768L48.83 0L48.498 4.528C48.121 9.68 50.174 14.839 53.992 18.326C56.149 20.299 58.981 21.596 61.98 22.525C64.821 23.61 67.759 24.732 70.316 26.702C75.166 31.196 78.039 36.876 79.777 40.572ZM16.731 109.256C21.981 114.483 28.649 119.283 36.013 122.324C40.499 124.176 45.193 125.546 50.015 125.903C49.3214 124.716 48.6719 123.505 48.068 122.27C44.325 114.616 42.427 106.676 42.427 97.814C42.427 88.316 45.268 77.501 51.516 68.766C31.269 70.931 16.074 87.122 15.403 106.848C15.835 107.676 16.275 107.923 16.731 109.256ZM61.026 26.325C57.309 25.094 53.978 23.822 51.25 21.328C47.717 18.099 45.403 13.715 44.654 9.042C42.236 12.999 40.387 18.2 41.676 23.203C41.841 24.504 42.299 25.775 42.901 26.983L39.266 28.8C38.8199 27.8878 38.4399 26.9447 38.129 25.978C28.809 29.456 20.485 35.487 14.472 44.286C7.66402 52.466 4.064 63.223 4.064 74.556C4.06635 84.148 6.73989 93.5499 11.785 101.708C13.138 92.568 17.34 84.117 23.958 78.076C30.096 71.742 36.498 67.788 44.05 65.841C42.737 65.188 41.706 65.046 40.474 63.537C35.717 59.587 32.878 53.541 32.878 47.856H36.941C36.941 52.345 39.232 57.223 43.07 60.876C45.792 62.669 49.428 63.948 54.487 65.146L54.486 64.335H54.5C54.805 64.335 55.097 64.806 55.363 64.521C60.77 65.019 66.812 65.659 72.385 68.262C77.856 70.678 82.277 74.231 86.083 78.573L91.497 78.602H91.513C93.016 78.602 93.996 78.038 94.123 77.127L95.922 74.146L96.017 66.149C96.0209 66.0404 95.9969 65.9325 95.9474 65.8357C95.8978 65.7389 95.8244 65.6564 95.734 65.596C93.076 63.539 90.066 61.552 87.82 59.346C82.636 54.256 78.669 48.466 76.027 42.138C73.746 36.2 70.945 32.319 67.836 29.923C65.752 28.318 63.216 27.35 61.026 26.325ZM79.806 122.268C80.3603 122.268 80.9091 122.377 81.4211 122.59C81.9331 122.802 82.3983 123.113 82.79 123.505C83.1818 123.897 83.4925 124.363 83.7044 124.875C83.9163 125.387 84.0253 125.936 84.025 126.49C84.0253 127.609 83.581 128.683 82.7898 129.475C81.9986 130.266 80.9253 130.711 79.806 130.712C77.475 130.712 76.126 128.821 76.126 126.49C76.126 124.158 77.475 122.268 79.806 122.268ZM93.71 122.268C94.2643 122.268 94.8133 122.377 95.3254 122.589C95.8375 122.802 96.3028 123.113 96.6947 123.505C97.0866 123.897 97.3974 124.362 97.6093 124.874C97.8213 125.387 97.9303 125.936 97.93 126.49C97.9298 127.325 97.6821 128.141 97.2181 128.835C96.7541 129.529 96.0948 130.07 95.3234 130.389C94.552 130.708 93.7033 130.792 92.8846 130.629C92.0658 130.466 91.3138 130.063 90.7236 129.473C90.1334 128.883 89.7316 128.13 89.5689 127.312C89.4062 126.493 89.49 125.644 89.8097 124.873C90.1294 124.102 90.6705 123.442 91.3648 122.979C92.059 122.515 92.8752 122.268 93.71 122.268Z" fill="white"/>
</svg>
