<svg width="240" height="50" viewBox="0 0 240 50" fill="none" xmlns="http://www.w3.org/2000/svg">
<path fill-rule="evenodd" clip-rule="evenodd" d="M207 42.9V39.9H203.6V31.9H199.7V42.9H207ZM227.9 42.9V32H224.4V35.9C224.4 36.4 224.5 37 224.5 37.7L220.7 32H217.4V42.9H220.9V38.8C220.9 38.2 220.9 37.7 220.8 37.2L224.6 42.9H227.9ZM216.3 42.9V39.9H211.6V38.6H213.8V36H211.6V34.7H215.8V32H208.1V43L216.3 42.9ZM192.4 36.9V34.7H193C193.9 34.7 194.3 35.2 194.3 35.9C194.3 36.6 193.8 37.1 193 37.1H192.4V36.9ZM198.6 42.9L195.7 38.4C196.9 38.2 197.8 37.2 197.8 35.7C197.8 33.3 196.3 32 193.4 32H189V43H192.5V39.4L194.3 43L198.6 42.9ZM182.1 35.3C183.3 35.3 184.3 36.2 184.4 37.5V37.6C184.4 38.8 183.4 39.8 182.1 39.8C180.8 39.8 179.8 38.8 179.7 37.6C179.7 36.2 180.7 35.3 182.1 35.3ZM182.1 31.7C185.3 31.7 187.8 34.4 187.8 37.6C187.8 40.8 185.2 43.3 182.1 43.3C178.9 43.4 176.3 40.9 176.2 37.7V37.6C176.2 34.3 178.8 31.7 182.1 31.7ZM231.9 45.6H173V29.3H231.9V45.6ZM223.1 7.40002L222.7 7.00002C221 5.30002 218.8 4.40002 216.4 4.40002H210C207.2 4.40002 204.8 6.50002 204.4 9.20002H216.4C217.5 9.20002 218.5 9.60002 219.2 10.4L223.1 14.3C225 16.1 228 16.1 229.8 14.2L223.1 7.40002ZM213 13.5C214.3 13.5 215.3 12.5 215.3 11.2C215.3 10.8 215.2 10.4 215 10H211C210.8 10.4 210.7 10.8 210.7 11.2C210.7 12.5 211.7 13.5 213 13.5ZM217.5 26.7C219.4 24.8 219.4 21.8 217.5 19.9L210 12.4C208.5 10.9 206.4 10 204.3 10H203.6C200.9 10 198.8 12.2 198.8 14.8C198.8 15.8 199.1 16.7 199.6 17.5C199.4 16.2 200.3 15 201.6 14.8C201.7 14.8 201.8 14.8 201.9 14.8H204.2C205.1 14.8 205.9 15.1 206.5 15.7L217.5 26.7Z" fill="#FD0000"/>
<path fill-rule="evenodd" clip-rule="evenodd" d="M155.1 0H156.4V50H155.1" fill="white"/>
<path d="M49.8994 43V34.2999H55.3994V35.7999H51.5994V38.4H54.6994V39.9H51.5994V43H49.8994ZM60.3994 34.5V43H58.5994V36.5999L56.7994 37.7999L55.9994 36.4L58.7994 34.5H60.3994ZM62.1994 34.9C62.1994 35.2 61.9994 35.4 61.6994 35.4C61.3994 35.4 61.1994 35.2 61.1994 34.9C61.1994 34.6 61.3994 34.4 61.6994 34.4C61.8994 34.4 62.1994 34.6 62.1994 34.9ZM61.2994 34.9C61.2994 35.1 61.4994 35.2999 61.6994 35.2999C61.8994 35.2999 62.0994 35.1 62.0994 34.9C62.0994 34.7 61.8994 34.5 61.6994 34.5C61.3994 34.5 61.2994 34.7 61.2994 34.9ZM61.5994 35.0999H61.4994V34.5999C61.4994 34.5999 61.5994 34.5999 61.6994 34.5999C61.7994 34.5999 61.7994 34.5999 61.8994 34.5999V34.7C61.8994 34.8 61.8994 34.7999 61.7994 34.7999L61.8994 34.9C61.8994 35 61.8994 35 61.8994 35H61.7994V34.9C61.7994 34.8 61.7994 34.7999 61.6994 34.7999H61.5994V35.0999ZM61.5994 34.9C61.6994 34.9 61.7994 34.8999 61.7994 34.7999C61.7994 34.7999 61.7994 34.7 61.6994 34.7H61.5994V34.9ZM66.0994 35.7999V34.2H72.4994V35.7999H70.1994V43H68.3994V35.9H66.0994V35.7999ZM73.8994 43V34.2999H79.4994V35.7999H75.5994V37.7999H78.6994V39.2999H75.5994V41.4H79.4994V43H73.8994ZM80.5994 43L82.5994 34.2999H85.8994L87.8994 43H86.0994L85.7994 41.4H82.7994L82.2994 43H80.5994ZM83.8994 35.7L82.9994 39.9H85.3994L84.4994 35.7999H83.8994V35.7ZM89.2994 43V34.2999H92.2994L93.7994 40.5999L95.2994 34.2999H98.2994V43H96.4994V36.2999H96.2994L94.5994 42.5999H92.9994L91.2994 36.2999H91.0994V43H89.2994Z" fill="#B11A2C"/>
<path fill-rule="evenodd" clip-rule="evenodd" d="M141.1 14C140.8 15.4 139.7 16.4 138.3 16.6C138.3 16.5 138.3 16.5 138.3 16.4C138.2 15.4 137.4 14.7 136.4 14.6C135.7 14.5 135 14.5 134.4 14.7C132.5 15.1 130.8 16 129.4 17.2C128.6 17.9 127.8 18.7 127.5 19.7C127.3 20.3 126.9 20.8 126.3 20.9C126.2 20.9 126.2 20.9 126.1 21C125.1 21.4 124 21.6 122.9 21.6C122.3 21.6 121.8 21.4 121.3 21.1C121 21 120.8 20.7 120.7 20.4L120.9 20.3C121.9 19.9 122.8 19.5 123.8 19.1C124.7 18.7 125.5 18.2 126.1 17.5C126.6 17.1 126.9 16.5 127.1 15.9C127.1 15.9 127.1 15.9 127.1 15.8C127.2 15.3 127 14.8 126.5 14.7C126.2 14.6 125.9 14.5 125.6 14.5C124.3 14.5 123 14.8 121.8 15.4C119.7 16.4 118.1 17.9 117.4 20.2C117.3 20.4 117.2 20.5 117 20.6C116.3 20.9 115.5 21.2 114.7 21.2C114.4 21.2 114.1 21.2 113.8 21.2C113.5 21.2 113.4 21 113.5 20.8C113.6 20.6 113.7 20.4 113.8 20.2C114.2 19.7 114.6 19.2 115 18.7C115.5 18.1 116 17.6 116.4 17C116.6 16.7 116.7 16.4 116.8 16C116.9 15.6 116.7 15.3 116.3 15.2C116 15.1 115.6 15 115.2 15.1C113.9 15.4 112.6 15.8 111.3 16.1L110.6 16.3V16C110.6 15.3 110.3 15 109.6 15C109.2 15 108.8 15.1 108.4 15.2C107.3 15.5 106.3 15.8 105.2 16.1C104.9 16.2 104.7 16.2 104.4 16.3C104.4 16.1 104.4 16.1 104.4 16V15.9C104.4 15.4 104 15.1 103.5 15.1C103.2 15.1 102.9 15.1 102.6 15.1C101.5 15.3 100.4 15.6 99.2996 15.8C98.4996 16 97.6996 16.2 96.8996 16.5C96.8996 16.4 96.8996 16.4 96.7996 16.3C96.5996 15.2 95.8996 14.7 94.8996 14.5C94.1996 14.4 93.5996 14.4 92.8996 14.6C90.8996 15 88.9996 16 87.4996 17.5C86.6996 18.2 85.9996 19.2 85.6996 20.3C85.6996 20.5 85.4996 20.6 85.3996 20.7C84.7996 20.9 84.1996 21.1 83.5996 21.3C83.3996 21.3 83.1996 21.4 82.9996 21.3C82.3996 21.3 82.1996 21 82.3996 20.4C82.4996 20.2 82.5996 20 82.6996 19.7C82.8996 19.2 83.1996 18.8 83.3996 18.3C83.6996 17.6 83.9996 16.9 83.6996 16.1C84.2996 15.9 84.7996 15.7 85.3996 15.5C86.7996 15 87.9996 14.2 88.8996 13.2C90.1996 11.7 90.3996 9.59996 89.4996 7.89996C88.9996 6.99996 88.1996 6.19996 87.2996 5.69996C87.1996 5.59996 86.9996 5.49996 86.7996 5.39996L88.0996 4.49996V4.39996C87.6996 4.39996 87.3996 4.39996 86.9996 4.39996C86.5996 4.29996 86.1996 4.49996 85.7996 4.69996C85.5996 4.79996 85.3996 4.89996 85.1996 4.79996C84.1996 4.59996 83.1996 4.39996 82.1996 4.29996C79.1996 3.99996 76.1996 4.59996 73.4996 5.79996C71.7996 6.59996 70.2996 7.59996 68.9996 8.99996C68.0996 9.89996 67.3996 11 67.0996 12.3C66.7996 13.6 66.9996 14.8 68.0996 15.6C68.8996 16.2 69.7996 16.5 70.7996 16.6C70.8996 16.6 71.0996 16.6 71.1996 16.5C71.8996 15.9 72.4996 15.3 73.1996 14.7C73.2996 14.6 73.2996 14.5 73.3996 14.4H72.4996C70.6996 14.3 68.8996 12.5 70.1996 10.3C70.4996 9.79996 70.8996 9.29996 71.3996 8.79996C72.4996 7.89996 73.6996 7.19996 74.9996 6.69996C77.0996 5.89996 79.3996 5.69996 81.6996 5.99996C82.2996 6.09996 82.7996 6.19996 83.4996 6.39996L83.1996 6.69996C82.6996 7.19996 82.0996 7.59996 81.6996 8.19996C80.5996 9.49996 79.3996 10.8 78.2996 12.1C76.9996 13.7 75.5996 15.3 74.0996 16.8C73.2996 17.6 72.3996 18.3 71.3996 18.9C70.6996 19.3 69.9996 19.6 69.1996 19.6C68.3996 19.7 67.4996 19.5 66.7996 19.1C66.3996 18.8 66.3996 18.8 65.9996 19.2C65.7996 19.4 65.5996 19.6 65.3996 19.8C64.6996 20.4 64.0996 21 63.3996 21.5C62.9996 21.9 62.9996 22 63.4996 22.2C63.8996 22.4 64.2996 22.5 64.6996 22.6C66.4996 23.3 68.4996 23.3 70.2996 22.6C71.7996 22 73.0996 21.2 74.2996 20C75.6996 18.6 76.9996 17.1 78.0996 15.5C78.1996 15.4 78.2996 15.3 78.2996 15.2L78.3996 15.3C78.9996 16.2 80.1996 16.7 81.2996 16.4C81.4996 16.4 81.5996 16.4 81.7996 16.3C81.6996 16.5 81.5996 16.8 81.3996 17C81.1996 17.4 80.8996 17.7 80.5996 18.1C79.8996 18.9 79.1996 19.8 78.3996 20.6C78.1996 20.8 77.9996 21.1 77.7996 21.3C77.6996 21.4 77.6996 21.6 77.5996 21.7C77.4996 22.2 77.8996 22.7 78.3996 22.8C78.7996 22.9 79.2996 22.9 79.7996 22.9C81.3996 22.8 82.9996 22.4 84.4996 21.9C84.8996 21.8 85.3996 21.6 85.7996 21.4C85.8996 21.5 85.8996 21.5 85.8996 21.6C86.2996 22.3 86.9996 22.8 87.7996 22.9C88.4996 23 89.1996 23 89.8996 22.8C91.5996 22.4 93.1996 21.6 94.5996 20.4C95.3996 19.8 95.9996 19.1 96.3996 18.3C96.5996 17.8 97.0996 17.5 97.5996 17.4C97.7996 17.4 98.0996 17.3 98.2996 17.2C98.5996 17.2 98.8996 17.1 99.1996 17.2C99.5996 17.2 99.7996 17.5 99.5996 17.9C99.4996 18.1 99.3996 18.2 99.2996 18.4C98.2996 19.5 97.3996 20.7 96.3996 21.8C96.1996 22.1 95.8996 22.4 95.6996 22.7C95.7996 23 95.9996 23 96.1996 23C96.7996 23 97.3996 23 97.9996 23C98.5996 23 99.0996 22.8 99.3996 22.3C100.6 20.9 101.8 19.4 103 18C103.1 17.9 103.2 17.7 103.4 17.6C104 17.3 104.7 17.1 105.5 17C106 17 106.2 17.3 105.9 17.7C105.7 18 105.5 18.3 105.3 18.5C104.3 19.7 103.3 20.9 102.3 22.1C102.2 22.3 102.1 22.4 102 22.6C102.1 22.9 102.3 22.9 102.5 22.9C103.1 22.9 103.7 22.9 104.4 22.9C104.9 22.9 105.5 22.7 105.8 22.3C107 20.8 108.3 19.3 109.5 17.9C109.6 17.7 109.8 17.6 110 17.5C110.5 17.3 111 17.2 111.5 17.1C111.6 17.1 111.8 17.1 111.9 17.1C112.2 17.2 112.3 17.3 112.2 17.6C112.1 17.8 111.9 18.1 111.8 18.3C111.4 18.7 111.1 19.2 110.7 19.6C110.3 20.1 109.9 20.6 109.5 21.1C109.4 21.2 109.3 21.4 109.3 21.6C109.2 22.2 109.6 22.7 110.2 22.8C110.6 22.9 111 22.9 111.5 22.9C112.8 22.7 114.1 22.4 115.4 22C116.1 21.7 116.8 21.5 117.6 21.2C117.6 21.2 117.7 21.3 117.7 21.4C118.2 22.2 119 22.7 119.9 22.9C120.8 23 121.8 23 122.7 22.8C124.2 22.5 125.6 22 126.9 21.4L127.5 21.2C127.5 21.2 127.6 21.3 127.6 21.4C128 22.2 128.7 22.8 129.6 23C130.3 23.1 131 23.1 131.7 22.9C133 22.6 134.3 22 135.4 21.2C136.4 20.5 137.4 19.7 138.1 18.6C138.4 18 138.9 17.6 139.6 17.4C140.9 17 142 16 142.7 14.8C142.9 14.5 143 14.2 143 13.9C142 14 141.6 14 141.1 14ZM81.2996 15.2C80.4996 15.7 79.4996 15.5 78.8996 14.8C79.3996 14.1 80.7996 14.4 81.2996 15.2ZM78.9996 13.7C80.5996 11.3 82.2996 8.99996 84.3996 6.99996C84.8996 7.29996 85.3996 7.69996 85.7996 8.19996C86.4996 8.99996 86.6996 10.2 86.1996 11.2C85.8996 11.9 85.4996 12.5 84.8996 13C84.1996 13.7 83.3996 14.2 82.4996 14.6C81.5996 13.7 80.2996 13.3 78.9996 13.7ZM95.2996 17.1C95.1996 17.2 95.0996 17.3 94.9996 17.4C94.4996 17.7 94.0996 18.1 93.8996 18.7C93.8996 18.8 93.7996 18.9 93.7996 19C93.7996 19.4 93.4996 19.8 93.1996 20C92.5996 20.5 91.7996 20.9 90.9996 21.2C90.5996 21.3 90.1996 21.4 89.7996 21.3H89.6996C89.1996 21.2 88.8996 20.7 88.9996 20.1C88.9996 19.8 89.0996 19.5 89.2996 19.3C90.0996 17.8 91.4996 16.6 93.0996 15.9C93.1996 15.8 93.3996 15.8 93.5996 15.8C93.7996 15.7 93.8996 15.7 94.0996 15.7C94.1996 15.7 94.3996 15.7 94.4996 15.7C94.5996 15.7 94.6996 15.7 94.8996 15.8C95.2996 16 95.4996 16.6 95.2996 17.1ZM120.4 19.4C120.5 18.5 120.9 17.7 121.6 17C122.5 16.1 123.6 15.6 124.8 15.4C125.1 15.3 125.2 15.5 125.1 15.8C125 16.2 124.7 16.6 124.5 16.9C123.8 17.7 122.9 18.4 121.9 18.8C121.4 19.1 121 19.2 120.4 19.4ZM137.1 16.8C137.1 17.1 136.9 17.4 136.7 17.5C136.1 17.8 135.6 18.4 135.6 19.1C135.6 19.4 135.4 19.8 135.1 20C134.5 20.5 133.8 20.9 133.1 21.2C132.6 21.4 132.1 21.5 131.7 21.4H131.6C131.1 21.3 130.7 20.7 130.9 20.2C130.9 19.9 131 19.6 131.2 19.4C132 17.9 133.4 16.7 135.1 16C135.5 15.8 136 15.8 136.4 15.9H136.5C136.8 15.7 137.2 16.2 137.1 16.8ZM62.4996 18.8H61.3996C61.1996 18.8 60.9996 18.9 60.8996 19C60.6996 19.3 60.3996 19.6 60.0996 19.8C58.9996 20.7 57.6996 21.3 56.2996 21.7C55.8996 21.8 55.5996 21.8 55.1996 21.8C54.5996 21.8 54.3996 21.5 54.4996 20.9C54.4996 20.7 54.5996 20.6 54.6996 20.5C54.8996 20.2 55.0996 19.9 55.2996 19.6C56.1996 18.4 57.1996 17.2 58.1996 16.1C58.3996 15.9 58.5996 15.6 58.7996 15.3C58.5996 15.2 58.3996 15.2 58.1996 15.2H56.9996C56.2996 15.2 55.5996 15.2 55.0996 15.8C54.6996 15.3 54.1996 14.9 53.4996 14.8C52.8996 14.7 52.1996 14.6 51.5996 14.7C49.7996 14.9 47.9996 15.7 46.5996 16.8C45.4996 17.6 44.5996 18.8 44.0996 20.1C44.0996 20.2 43.9996 20.3 43.9996 20.4C42.7996 20.4 41.4996 20.2 40.2996 19.9C40.2996 19.8 40.2996 19.8 40.3996 19.7C41.1996 18.7 41.8996 17.8 42.6996 16.8C42.7996 16.7 42.9996 16.6 43.0996 16.5C43.6996 16.2 44.2996 16 44.8996 15.7C47.4996 14.4 49.8996 12.6 51.8996 10.5C52.4996 9.89996 52.9996 9.19996 53.4996 8.49996C53.6996 8.19996 53.7996 7.89996 53.8996 7.59996C53.8996 7.49996 53.9996 7.39996 53.9996 7.29996C53.9996 6.89996 53.6996 6.59996 53.2996 6.59996C52.9996 6.59996 52.6996 6.59996 52.3996 6.59996C51.0996 6.99996 50.0996 7.39996 49.0996 7.99996C47.0996 9.19996 45.1996 10.7 43.4996 12.3C41.4996 14.1 39.6996 16.1 37.8996 18.1L37.4996 18.5C37.2996 18.4 37.1996 18.3 36.9996 18.2C36.6996 18.1 36.3996 18 36.0996 17.9C35.3996 17.8 34.9996 18.4 35.2996 19.1C35.3996 19.3 35.3996 19.4 35.4996 19.5C35.3996 19.5 35.3996 19.6 35.3996 19.6C34.0996 20.1 32.6996 20.5 31.2996 20.8C30.9996 21 30.5996 21 30.0996 20.9C29.7996 20.8 29.6996 20.6 29.7996 20.3C29.8996 20.1 29.9996 19.9 30.0996 19.8C30.7996 18.9 31.4996 17.9 32.0996 17C32.1996 16.8 32.3996 16.7 32.5996 16.6C33.0996 16.4 33.4996 16.3 33.9996 16.1C36.7996 14.8 39.3996 12.9 41.5996 10.7C42.1996 10.1 42.7996 9.39996 43.2996 8.59996C43.4996 8.29996 43.5996 7.99996 43.6996 7.69996C43.9996 6.99996 43.6996 6.69996 42.9996 6.59996C42.4996 6.59996 41.9996 6.69996 41.4996 6.79996C40.2996 7.19996 39.1996 7.69996 38.1996 8.39996C35.9996 9.89996 33.9996 11.5 32.0996 13.4C30.2996 15.2 28.5996 17.1 26.8996 19C26.7996 19.2 26.5996 19.3 26.3996 19.4C25.4996 19.8 24.4996 20.2 23.5996 20.6C23.2996 20.7 23.0996 20.8 22.7996 20.8C22.5996 20.8 22.2996 20.9 22.0996 20.7C21.8996 20.5 22.0996 20.2 22.1996 20C22.1996 19.9 22.2996 19.8 22.3996 19.7C22.5996 19.4 22.7996 19 23.0996 18.7C24.7996 16.7 26.4996 14.7 28.1996 12.6C29.7996 10.7 31.3996 8.89996 32.9996 6.99996C32.9996 7.09996 33.0996 6.99996 33.1996 6.89996C33.2996 6.69996 33.1996 6.59996 32.9996 6.59996C32.8996 6.59996 32.7996 6.59996 32.6996 6.59996C31.8996 6.59996 31.1996 6.59996 30.3996 6.59996C29.7996 6.49996 29.1996 6.69996 28.7996 7.19996H28.6996C27.5996 6.59996 26.3996 6.29996 25.0996 6.39996C24.1996 6.39996 23.2996 6.49996 22.4996 6.69996C17.4996 7.69996 13.0996 10.5 10.0996 14.6C9.09964 15.8 8.49963 17.3 8.19963 18.8C7.89963 20.5 8.79963 22.2 10.4996 22.8C11.0996 23 11.6996 23.1 12.3996 23C13.8996 22.9 15.4996 22.5 16.8996 21.8C16.9996 21.8 17.0996 21.7 17.1996 21.7C17.2996 22.5 17.5996 22.8 18.2996 22.9C18.6996 23 19.1996 23 19.5996 22.9C20.8996 22.8 22.1996 22.5 23.4996 22L25.0996 21.5C25.0996 22.3 25.3996 22.6 26.1996 22.7C26.3996 22.8 26.6996 22.8 26.9996 22.8C27.7996 22.7 28.5996 22.7 29.2996 22.6C31.1996 22.2 32.9996 21.7 34.7996 21.1C34.8996 21.1 34.9996 21 35.1996 21C35.0996 21.1 35.0996 21.2 35.0996 21.2C33.0996 23.3 31.0996 25.5 29.0996 27.6C28.2996 28.4 27.3996 29.1 26.3996 29.6C25.1996 30.2 23.7996 30.2 22.4996 29.7C21.9996 29.5 21.5996 29.2 21.0996 28.9L19.9996 30C21.2996 31.1 22.9996 31.7 24.6996 31.6C25.9996 31.6 27.1996 31.2 28.3996 30.7C30.0996 29.9 31.6996 28.8 33.0996 27.5C34.7996 26 36.3996 24.3 37.8996 22.6C38.3996 22.1 38.7996 21.6 39.2996 21.1C40.7996 21.4 42.3996 21.4 43.9996 21.2C44.0996 21.3 44.0996 21.3 44.0996 21.3C44.2996 22.3 44.8996 22.7 45.7996 23C46.7996 23.2 47.7996 23.2 48.6996 22.9C49.3996 22.7 50.0996 22.5 50.8996 22.2C51.0996 22.6 51.5996 22.9 52.0996 23C52.5996 23.1 53.1996 23.2 53.6996 23.2C54.5996 23.1 55.3996 23 56.2996 22.8C58.3996 22.3 60.3996 21.3 61.8996 19.8C62.1996 19.5 62.4996 19.2 62.6996 18.8C62.5996 18.9 62.5996 18.8 62.4996 18.8ZM45.3996 13.2C46.6996 11.7 48.0996 10.3 49.6996 8.99996C49.9996 8.79996 50.2996 8.59996 50.5996 8.29996C50.6996 8.19996 50.7996 8.19996 50.8996 8.09996C51.2996 7.99996 51.4996 8.09996 51.3996 8.49996C51.3996 8.69996 51.2996 8.89996 51.1996 9.09996C50.9996 9.49996 50.7996 9.89996 50.4996 10.2C48.9996 11.9 47.2996 13.4 45.1996 14.4C44.7996 14.6 44.2996 14.8 43.7996 14.9L43.6996 14.8C44.3996 14.3 44.8996 13.7 45.3996 13.2ZM33.6996 14.9C34.1996 14.3 34.5996 13.8 35.0996 13.2C36.3996 11.7 37.8996 10.3 39.3996 8.99996C39.6996 8.69996 40.0996 8.49996 40.4996 8.29996C40.7996 8.09996 40.9996 7.99996 41.1996 8.19996C41.3996 8.39996 41.3996 8.59996 41.2996 8.89996C41.0996 9.29996 40.8996 9.79996 40.5996 10.1C38.9996 12.1 36.8996 13.7 34.4996 14.8C34.2996 14.9 33.9996 15 33.6996 15.1V14.9ZM19.3996 18.4C18.2996 19.7 16.6996 20.5 14.9996 20.7C14.2996 20.8 13.4996 20.6 12.8996 20.2C12.2996 19.8 11.8996 19.1 12.0996 18.3C12.1996 17.8 12.3996 17.3 12.5996 16.8C13.1996 15.6 13.9996 14.5 14.8996 13.6C16.4996 11.8 18.4996 10.3 20.5996 9.09996C21.7996 8.39996 22.9996 7.99996 24.3996 7.79996C24.4996 7.79996 24.4996 7.79996 24.6996 7.79996H25.0996V7.59996C25.4996 7.69996 25.7996 7.69996 26.1996 7.89996C26.2996 7.89996 26.2996 7.89996 26.2996 7.99996C26.7996 8.19996 26.9996 8.89996 26.7996 9.39996C26.5996 9.99996 26.2996 10.5 25.8996 10.9C23.7996 13.3 21.5996 15.9 19.3996 18.4ZM53.6996 17.3C52.8996 18.3 52.1996 19.2 51.3996 20.2C51.0996 20.6 50.5996 20.8 50.1996 21C49.7996 21.2 49.2996 21.3 48.7996 21.4C47.8996 21.5 47.1996 21 47.3996 20C47.4996 19.5 47.6996 19.1 47.9996 18.7C48.8996 17.3 50.2996 16.3 51.8996 15.8C52.0996 15.7 52.3996 15.7 52.6996 15.7C53.4996 15.7 53.9996 16.1 53.9996 16.8C53.8996 17 53.8996 17.2 53.6996 17.3Z" fill="white"/>
</svg>
