<svg width="41" height="31" viewBox="0 0 41 31" fill="none" xmlns="http://www.w3.org/2000/svg" class="main_logo" style="opacity: 1;">
	<path d="M0.0247411 20.0867C0.0185559 20.1115 0.0154632 20.1362 0.0123706 20.1625C0.00773161 20.1919 0.00463896 20.2197 0.00309264 20.2491C0.00309264 20.2568 0 20.2645 0 20.2738C0 20.2908 0.00463896 20.3063 0.00463896 20.3218C0.00618529 20.3511 0.00773161 20.379 0.0139169 20.4083C0.0185559 20.4346 0.0247411 20.4594 0.0309264 20.4841C0.0371117 20.5089 0.0448433 20.5336 0.0541212 20.5583C0.0633992 20.5831 0.0742234 20.6078 0.086594 20.631C0.0974182 20.6542 0.109789 20.6759 0.123706 20.6991C0.137623 20.7207 0.153086 20.7424 0.168549 20.7625C0.184012 20.7841 0.201022 20.8042 0.219578 20.8243C0.236587 20.8429 0.256689 20.8614 0.275245 20.8784C0.295347 20.8954 0.313903 20.9124 0.335552 20.9279C0.358747 20.9449 0.383488 20.9588 0.408229 20.9743C0.422146 20.982 0.434516 20.9929 0.44998 21.0006L19.912 30.7316C19.9197 30.7347 19.9274 30.7362 19.9336 30.7393C19.9445 30.744 19.9537 30.7501 19.9646 30.7548C19.9738 30.7594 19.9847 30.761 19.9955 30.7656C20.0109 30.7718 20.028 30.7764 20.0434 30.7811C20.0589 30.7857 20.0743 30.7904 20.0898 30.7934C20.0991 30.795 20.1068 30.7996 20.1161 30.8012C20.1254 30.8027 20.1346 30.8027 20.1439 30.8043C20.1609 30.8074 20.1779 30.8089 20.1965 30.8105C20.2151 30.812 20.2336 30.8135 20.2506 30.8135C20.2661 30.8135 20.2831 30.8135 20.2986 30.8135C20.3171 30.8135 20.3341 30.812 20.3527 30.8105C20.3697 30.8089 20.3867 30.8058 20.4053 30.8043C20.4145 30.8027 20.4238 30.8027 20.4331 30.8012C20.4424 30.7996 20.4501 30.7965 20.4594 30.7934C20.4748 30.7904 20.4903 30.7857 20.5058 30.7811C20.5212 30.7764 20.5382 30.7702 20.5537 30.7656C20.5645 30.7625 20.5738 30.7594 20.5846 30.7548C20.5955 30.7501 20.6047 30.744 20.6156 30.7393C20.6233 30.7362 20.631 30.7347 20.6372 30.7316L40.0992 21.0006C40.1147 20.9929 40.1255 20.982 40.141 20.9743C40.1657 20.9604 40.1904 20.9449 40.2136 20.9279C40.2353 20.9124 40.2538 20.8954 40.2739 20.8784C40.294 20.8614 40.3126 20.8429 40.3296 20.8243C40.3482 20.8042 40.3636 20.7841 40.3806 20.7625C40.3961 20.7424 40.4116 20.7207 40.4255 20.6991C40.4394 20.6774 40.4502 20.6542 40.4626 20.631C40.475 20.6078 40.4858 20.5831 40.4951 20.5583C40.5043 20.5336 40.5121 20.5089 40.5183 20.4841C40.5244 20.4594 40.5306 20.4346 40.5353 20.4083C40.5399 20.379 40.5415 20.3511 40.5445 20.3218C40.5461 20.3063 40.5492 20.2908 40.5492 20.2738C40.5492 20.2661 40.5476 20.2584 40.5461 20.2491C40.5445 20.2197 40.5415 20.1919 40.5368 20.1625C40.5337 20.1377 40.5306 20.1115 40.5244 20.0867C40.5183 20.0635 40.5105 20.0388 40.5028 20.0156C40.4935 19.9878 40.4842 19.9584 40.4703 19.9321C40.4672 19.9243 40.4657 19.9166 40.4626 19.9104L30.73 0.448433C30.7254 0.439155 30.7177 0.43297 30.713 0.425238C30.6852 0.37421 30.6527 0.326274 30.6141 0.282977C30.6048 0.272153 30.5971 0.261328 30.5878 0.25205C30.5429 0.205661 30.4919 0.16391 30.4362 0.128345C30.4223 0.119067 30.4084 0.112881 30.3945 0.10515C30.3496 0.0804087 30.3017 0.0603065 30.2522 0.043297C30.2352 0.0371117 30.2182 0.0324727 30.2012 0.0278338C30.1393 0.0123706 30.076 0.00154632 30.011 0.00154632C30.0079 0.00154632 30.0064 0 30.0048 0C29.9971 0 29.9878 0.00309264 29.9801 0.00309264C29.929 0.00463896 29.8796 0.00927793 29.8316 0.0201022C29.8162 0.0231948 29.8007 0.0309264 29.7852 0.0340191C29.7435 0.0463896 29.7033 0.0603065 29.6646 0.0773161C29.6584 0.0804087 29.6507 0.081955 29.6445 0.0850477C29.6291 0.0927793 29.6182 0.103604 29.6028 0.111335C29.578 0.125252 29.5533 0.140715 29.5301 0.157725C29.5085 0.173188 29.4899 0.190198 29.4698 0.207207C29.4497 0.224217 29.4311 0.242772 29.4141 0.261328C29.3956 0.28143 29.3801 0.301533 29.3631 0.323181C29.3476 0.343283 29.3322 0.364932 29.3183 0.38658C29.3043 0.408229 29.2935 0.431424 29.2811 0.454618C29.2688 0.477813 29.2579 0.502554 29.2487 0.527296C29.2394 0.552037 29.2332 0.576778 29.2255 0.601519C29.2193 0.62626 29.2131 0.651001 29.2085 0.677289C29.2038 0.706669 29.2023 0.734503 29.1992 0.763883C29.1976 0.779346 29.1945 0.794809 29.1945 0.811819V18.3162L20.8491 9.97068C20.8104 9.93202 20.7686 9.898 20.7238 9.86862C20.7052 9.85625 20.6836 9.84697 20.6635 9.83615C20.6372 9.82223 20.6125 9.80677 20.5846 9.7944C20.5583 9.78358 20.5305 9.77739 20.5042 9.76966C20.481 9.76347 20.4578 9.7542 20.4346 9.74956C20.3821 9.73873 20.3295 9.73409 20.2754 9.73409C20.2228 9.73409 20.1687 9.74028 20.1161 9.74956C20.0914 9.7542 20.0697 9.76347 20.045 9.76966C20.0171 9.77739 19.9908 9.78358 19.9646 9.7944C19.9367 9.80522 19.912 9.82223 19.8857 9.83615C19.8656 9.84697 19.8455 9.85625 19.8254 9.86862C19.7805 9.898 19.7388 9.93202 19.7001 9.97068L11.3546 18.3162V0.811819C11.3546 0.794809 11.35 0.779346 11.35 0.763883C11.3485 0.734503 11.3469 0.706669 11.3407 0.677289C11.3361 0.651001 11.3299 0.62626 11.3237 0.601519C11.3175 0.576778 11.3098 0.552037 11.3005 0.527296C11.2912 0.502554 11.2804 0.477813 11.268 0.454618C11.2572 0.431424 11.2448 0.409775 11.2309 0.38658C11.217 0.364932 11.2016 0.343283 11.1861 0.323181C11.1706 0.301533 11.1536 0.28143 11.1351 0.261328C11.1181 0.242772 11.0979 0.224217 11.0794 0.207207C11.0593 0.190198 11.0407 0.173188 11.0191 0.157725C10.9959 0.140715 10.9712 0.126798 10.9464 0.111335C10.9325 0.103604 10.9201 0.0927793 10.9047 0.0850477C10.8985 0.081955 10.8907 0.0804087 10.8846 0.0773161C10.8459 0.0587602 10.8057 0.0463896 10.7655 0.0340191C10.7485 0.0293801 10.733 0.0216485 10.716 0.0185559C10.6681 0.00773161 10.6201 0.00309264 10.5691 0.00154632C10.5614 0.00309264 10.5521 0 10.5444 0C10.5413 0 10.5397 0.00154632 10.5382 0.00154632C10.4717 0.00154632 10.4083 0.0123706 10.348 0.0278338C10.331 0.0324727 10.314 0.038658 10.297 0.043297C10.2475 0.0587602 10.1995 0.0804087 10.1547 0.10515C10.1408 0.112881 10.1269 0.119067 10.1129 0.128345C10.0573 0.16391 10.0062 0.204114 9.9614 0.25205C9.95213 0.261328 9.94439 0.273699 9.93511 0.282977C9.89646 0.326274 9.86398 0.37421 9.83615 0.425238C9.83151 0.434516 9.82378 0.440702 9.81914 0.448433L0.086594 19.9104C0.0835014 19.9182 0.081955 19.9243 0.0788624 19.9321C0.0664918 19.9584 0.0572139 19.9878 0.0463896 20.0156C0.038658 20.0388 0.0309264 20.062 0.0247411 20.0867ZM10.2073 21.0841L16.1668 27.0436L4.24774 21.0841H10.2073ZM30.3404 21.0841H36.2999L24.3808 27.0436L30.3404 21.0841ZM30.8151 19.462V4.2462L38.423 19.462H30.8151ZM21.0841 28.0456V12.4989L28.8574 20.2723L21.0841 28.0456ZM19.4635 28.0456L11.6902 20.2723L19.4635 12.4989V28.0456V28.0456ZM2.12465 19.462L9.73255 4.2462V19.462H2.12465Z" fill="#A3EC26"></path>
</svg>