<svg width="24" height="24" viewBox="0 0 24 24" fill="none" xmlns="http://www.w3.org/2000/svg">
<path d="M19.3398 9.646C20.8098 11.607 16.5048 15.4 17.4718 13.834H8.3018C7.3098 12.536 6.6278 11.118 6.2998 9.646H19.3398Z" fill="white"/>
<path d="M16.682 20.95C15.379 21.9893 13.9702 22.8886 12.479 23.633L11.749 24L11.015 23.634C4.116 20.172 0 14.208 0 7.674V0H4.208V7.673C4.208 8.163 4.24 8.651 4.307 9.136C4.837 13.106 7.517 16.769 11.733 19.236C11.7372 19.2397 11.7419 19.2427 11.747 19.245L11.758 19.238L11.776 19.227C13.3001 20.0794 14.9597 20.6616 16.682 20.95Z" fill="white"/>
<path d="M23.3683 9.64602C23.1733 11.1625 22.7572 12.6422 22.1333 14.038C20.9803 16.63 19.1263 18.989 16.6843 20.952C14.9627 20.6635 13.3037 20.0803 11.7803 19.228C12.3303 18.903 12.8643 18.551 13.3793 18.173C13.4303 18.14 13.4793 18.103 13.5273 18.065C16.3777 16.0124 18.4313 13.0379 19.3403 9.64502L23.3683 9.64602Z" fill="white"/>
<path d="M23.498 0.000976562L4.208 0L4.20801 4.20698H23.498V0.000976562Z" fill="white"/>
<path d="M23.4993 4.20801V7.67301C23.4993 7.81601 23.4943 7.96001 23.4893 8.10301H19.2793C19.2843 7.96001 19.2863 7.81601 19.2863 7.67301V4.20801H23.4993Z" fill="white"/>
</svg>
