<svg xmlns="http://www.w3.org/2000/svg" viewBox="0 0 184 200" width="184" height="200">
	<style>
		tspan { white-space:pre }
		.shp0 { fill: #1c2453 } 
		.shp1 { fill: #ffffff } 
		.shp2 { fill: #f47b2c } 
	</style>
	<g >
		<path class="shp0" d="M47.46 0.47C46.34 0.7 44.23 1.47 42.79 2.17C41.11 2.99 39.57 4.02 38.53 5.01C37.64 5.86 36.42 7.28 35.83 8.16C35.24 9.05 34.4 10.75 33.97 11.95C33.19 14.09 33.17 14.35 33.02 22.39L32.86 30.64C29.24 32.13 27.4 32.96 26.43 33.45C25.47 33.93 23.5 35.12 22.05 36.09C20.61 37.05 18.31 38.81 16.95 39.99C15.6 41.16 13.56 43.19 12.43 44.48C11.29 45.78 9.63 47.94 8.73 49.29C7.83 50.64 6.49 52.93 5.77 54.37C5.04 55.82 3.98 58.31 3.42 59.91C2.86 61.52 2.07 64.34 1.66 66.18C1.25 68.02 0.75 70.78 0.54 72.3C0.34 73.83 0.17 77.7 0.16 80.9C0.16 84.29 0.32 87.71 0.53 89.07C0.74 90.35 1.29 92.84 1.75 94.61C2.22 96.37 3.17 99.19 3.87 100.87C4.57 102.56 5.88 105.18 6.78 106.71C7.67 108.23 9.23 110.59 10.24 111.95C11.26 113.32 13.28 115.66 14.73 117.16C16.19 118.67 18.69 120.95 20.3 122.24C21.9 123.54 24.34 125.32 25.7 126.2C27.07 127.08 29.76 128.55 31.69 129.48C33.62 130.4 36.48 131.59 38.05 132.12L40.91 133.09C40.9 156.51 40.98 159.44 41.34 161.08C41.58 162.2 42.27 164.09 42.87 165.28C43.47 166.49 44.73 168.28 45.71 169.33C46.67 170.37 48.25 171.78 49.21 172.47C50.18 173.15 51.95 174.17 53.16 174.73C54.36 175.29 56.79 176.36 58.56 177.1C60.33 177.84 62.66 178.97 63.74 179.61C65.63 180.71 65.76 180.86 66.85 183.16C67.72 185.01 68.38 185.93 69.7 187.13C70.99 188.31 73.54 189.85 80.03 193.34C84.76 195.9 89.43 198.43 90.39 198.97L92.15 199.94C109.77 190.39 113.36 188.28 114.47 187.28C115.34 186.5 116.43 185.27 116.89 184.55C117.35 183.83 117.88 182.72 118.08 182.09C118.36 181.18 118.77 180.71 120.04 179.9C120.92 179.32 122.96 178.29 124.57 177.6C126.17 176.9 128.54 175.85 129.82 175.25C131.11 174.65 132.98 173.61 133.98 172.94C134.99 172.27 136.5 171.01 137.34 170.15C138.19 169.29 139.34 167.81 139.9 166.87C140.46 165.93 141.24 164.11 141.63 162.83C142.33 160.54 142.34 160.25 142.51 146.68L142.67 132.87C147.88 131.12 150.97 129.84 152.9 128.89C154.82 127.95 157.71 126.29 159.32 125.21C160.93 124.14 163.23 122.43 164.43 121.43C165.64 120.42 167.81 118.37 169.27 116.87C170.72 115.37 172.74 113.02 173.76 111.66C174.77 110.3 176.33 107.94 177.23 106.41C178.12 104.89 179.37 102.46 179.99 101.02C180.61 99.58 181.49 97.15 181.94 95.63C182.39 94.1 183 91.48 183.3 89.8C183.7 87.51 183.84 85.25 183.84 80.9C183.85 77.66 183.68 73.91 183.47 72.45C183.26 71.01 182.84 68.58 182.53 67.06C182.22 65.53 181.56 63.04 181.06 61.52C180.56 59.99 179.43 57.24 178.55 55.39C177.67 53.55 176.08 50.73 175.02 49.13C173.68 47.11 171.92 45.04 169.27 42.41C166.74 39.89 164.52 37.98 162.68 36.77C161.15 35.76 158.49 34.26 156.77 33.43L153.64 31.92C153.62 17.46 153.5 14.78 153.19 13.27C152.95 12.14 152.27 10.24 151.67 9.04C150.94 7.55 149.98 6.24 148.68 4.94C147.32 3.58 146.12 2.71 144.57 1.98C143.37 1.4 141.43 0.72 140.26 0.47C138.37 0.05 133.4 0 93.83 0.02C56.45 0.04 49.18 0.11 47.46 0.47Z" />
		<path class="shp1" d="M95.53 8.08C94.97 8.37 94.25 8.97 93.92 9.42C93.34 10.22 93.31 10.65 93.23 20.94C93.16 30.98 93.19 31.7 93.71 32.65C94.01 33.21 94.62 33.94 95.05 34.26C95.77 34.79 96.3 34.84 100.76 34.84C105.31 34.84 105.75 34.79 106.51 34.23C106.96 33.89 107.59 33.17 107.9 32.62C108.3 31.93 108.51 30.83 108.63 28.93L108.79 26.24L103.1 26.24C103.1 29.87 102.97 30.68 102.73 30.81C102.53 30.93 101.74 31.06 100.98 31.11C100.04 31.17 99.45 31.05 99.16 30.76C98.78 30.39 98.72 28.96 98.75 21.36C98.76 16.42 98.89 12.16 99.04 11.88C99.24 11.49 99.67 11.37 100.83 11.37C101.69 11.36 102.53 11.52 102.74 11.73C102.95 11.94 103.11 12.81 103.1 13.78L103.1 15.45L108.79 15.46C108.52 11.78 108.24 10.56 107.89 9.94C107.59 9.4 106.96 8.68 106.51 8.34C105.77 7.79 105.23 7.72 101.11 7.64C97.17 7.57 96.39 7.63 95.53 8.08ZM76.81 21.28L76.81 34.69L82.51 34.55L82.65 24.2L88.5 24.2L88.5 19.24L82.65 19.24L82.65 12.83L88.79 12.83L88.79 7.87L76.81 7.87L76.81 21.28Z" />
		<path class="shp2" d="M47.46 35.74C46.01 35.97 43.32 36.55 41.47 37.04C39.63 37.53 36.73 38.48 35.05 39.15C33.36 39.83 30.87 41.02 29.5 41.79C28.13 42.57 26.03 43.95 24.83 44.84C23.62 45.74 21.77 47.34 20.72 48.39C19.67 49.43 18.02 51.34 17.07 52.62C16.11 53.91 14.65 56.27 13.82 57.87C12.99 59.48 11.91 61.97 11.42 63.41C10.93 64.85 10.27 67.28 9.95 68.8C9.63 70.33 9.23 72.76 9.07 74.2C8.9 75.64 8.77 78.79 8.77 81.2C8.76 83.68 8.95 86.7 9.19 88.19C9.43 89.64 9.88 91.73 10.2 92.86C10.51 93.98 11.24 96.01 11.81 97.38C12.39 98.74 13.47 100.9 14.21 102.19C14.96 103.47 16.3 105.5 17.19 106.71C18.08 107.91 19.87 109.99 21.16 111.33C22.45 112.68 24.56 114.62 25.85 115.65C27.13 116.69 29.37 118.27 30.81 119.17C32.26 120.07 34.62 121.35 36.07 122.02C37.52 122.69 39.95 123.65 41.47 124.15C43 124.65 45.23 125.27 46.44 125.52C47.64 125.78 50.7 126.11 53.23 126.26C55.76 126.41 58.45 126.68 59.22 126.86C59.98 127.04 61.56 127.63 62.72 128.17C64.18 128.85 65.41 129.72 66.68 130.98C67.93 132.22 68.86 133.5 69.59 134.99C70.19 136.19 70.87 137.96 71.12 138.92C71.36 139.88 71.69 142.18 71.85 144.02C72.01 145.87 72.6 154.49 73.16 163.19C73.89 174.41 74.3 179.24 74.59 179.81C74.82 180.25 75.24 180.83 75.54 181.1C75.84 181.36 78.97 183.16 82.51 185.08C86.04 187.01 89.16 188.66 89.44 188.75C89.93 188.91 89.95 186.53 89.88 141.03L89.81 93.15C88.56 90.55 87.58 89.13 86.82 88.32C86.05 87.5 84.71 86.49 83.82 86.07C82.61 85.49 81.64 85.27 79.88 85.18C77.77 85.08 77.04 85.21 72.29 86.55C69.39 87.36 65.71 88.29 64.11 88.6C62.5 88.92 59.81 89.33 58.12 89.51C56.43 89.7 54.13 89.76 53.01 89.66C51.89 89.56 49.85 89.21 48.48 88.89C47.12 88.57 44.82 87.75 43.37 87.06C41.93 86.37 39.69 85.02 38.41 84.05C37.12 83.09 35.43 81.59 34.64 80.73C33.86 79.86 32.73 78.43 32.13 77.55C31.53 76.67 30.63 75.13 30.12 74.13C29.62 73.12 28.86 71.16 28.43 69.75C27.72 67.45 27.64 66.74 27.63 62.54C27.62 58.95 27.74 57.43 28.13 55.98C28.42 54.93 28.98 53.23 29.4 52.19C29.81 51.14 30.74 49.37 31.48 48.25C32.21 47.13 33.41 45.57 34.15 44.78C34.88 43.99 36.54 42.57 37.82 41.61C39.11 40.66 41.34 39.31 42.79 38.63C44.23 37.94 46.6 37.02 48.04 36.59C49.49 36.16 51 35.69 51.4 35.56C52.07 35.34 52.04 35.32 51.11 35.33C50.55 35.33 48.91 35.52 47.46 35.74ZM134.5 35.96C135.78 36.33 137.59 36.92 138.51 37.27C139.43 37.62 141.01 38.31 142.02 38.81C143.02 39.31 144.7 40.28 145.74 40.97C146.78 41.66 148.52 43.12 149.6 44.22C150.68 45.31 151.92 46.67 152.34 47.23C152.76 47.79 153.68 49.43 154.37 50.87C155.06 52.32 155.85 54.35 156.11 55.39C156.38 56.44 156.69 58.4 156.79 59.77C156.9 61.13 156.89 63.49 156.78 65.01C156.66 66.66 156.27 68.79 155.81 70.26C155.38 71.63 154.51 73.72 153.86 74.93C153.21 76.13 152.13 77.84 151.45 78.72C150.77 79.6 149.22 81.24 148 82.36C146.79 83.48 144.76 85.01 143.5 85.75C142.24 86.49 140.36 87.43 139.31 87.85C138.27 88.26 136.56 88.79 135.52 89.04C134.47 89.28 132.63 89.56 131.43 89.66C130.22 89.76 127.86 89.7 126.17 89.52C124.48 89.35 121.53 88.88 119.6 88.48C117.67 88.09 113.99 87.16 111.42 86.42C107.24 85.22 106.5 85.09 104.41 85.19C102.57 85.27 101.7 85.48 100.32 86.15C99.36 86.62 98.01 87.56 97.33 88.25C96.65 88.94 95.73 90.19 95.29 91.03L94.48 92.57C94.37 167.24 94.4 188.92 94.48 188.92C94.56 188.92 97.68 187.27 101.42 185.24C105.15 183.22 108.45 181.35 108.75 181.09C109.05 180.83 109.5 180.22 109.74 179.74C110.09 179.08 110.39 175.79 111.02 166.18C111.47 159.21 112.04 150.68 112.29 147.23C112.59 143.07 112.95 140.23 113.35 138.78C113.68 137.57 114.43 135.68 115.02 134.57C115.65 133.38 116.82 131.84 117.85 130.84C118.95 129.77 120.36 128.77 121.64 128.16C122.77 127.62 124.35 127.03 125.15 126.84C125.95 126.65 128.65 126.38 131.14 126.24C133.63 126.1 136.85 125.73 138.29 125.41C139.74 125.1 141.97 124.49 143.26 124.07C144.54 123.64 146.97 122.63 148.66 121.83C150.35 121.03 153.17 119.41 154.94 118.23C156.71 117.05 159.15 115.19 160.38 114.09C161.6 113 163.37 111.25 164.32 110.2C165.27 109.16 166.63 107.52 167.35 106.56C168.06 105.6 169.34 103.63 170.2 102.19C171.05 100.74 172.26 98.25 172.89 96.65C173.52 95.04 174.31 92.62 174.64 91.25C174.96 89.89 175.37 87.07 175.54 84.99C175.76 82.29 175.76 79.93 175.53 76.82C175.35 74.42 174.95 71.14 174.62 69.53C174.3 67.93 173.58 65.24 173.01 63.56C172.45 61.87 171.34 59.25 170.54 57.73C169.75 56.2 168.26 53.84 167.24 52.48C166.22 51.12 164.34 49.02 163.07 47.81C161.79 46.61 159.57 44.82 158.14 43.84C156.7 42.86 154.31 41.45 152.82 40.71C151.34 39.97 148.58 38.83 146.69 38.18C144.8 37.53 141.68 36.69 139.75 36.3C137.82 35.92 135.33 35.53 134.2 35.44L132.16 35.28L134.5 35.96Z" />
		<path class="shp1" d="M59.03 41.37C58.29 41.69 57.48 42.33 57.1 42.9C56.74 43.44 56.3 44.34 56.11 44.9C55.88 45.61 55.78 49.82 55.78 58.75C55.78 65.94 55.91 72.02 56.07 72.59C56.22 73.16 56.64 74.06 57.01 74.61C57.38 75.16 58.21 75.88 58.85 76.21C59.88 76.75 60.63 76.83 65.28 76.92C68.43 76.98 71.03 76.89 71.77 76.7C72.46 76.53 73.5 75.96 74.08 75.44C74.67 74.92 75.36 74.03 75.61 73.47C75.98 72.64 76.08 70.97 76.15 64.65L76.23 56.85L66.01 56.85L66.01 62.39L68.93 62.39C68.94 69.68 68.83 71.1 68.58 71.36C68.36 71.58 67.42 71.72 66.17 71.72C64.89 71.73 63.97 71.59 63.74 71.36C63.45 71.07 63.37 68.23 63.37 58.67L63.38 46.36C64.4 45.95 65.55 45.88 66.59 45.94C67.75 46 68.57 46.18 68.7 46.41C68.82 46.62 68.92 47.81 68.92 49.05L68.93 51.31L76.37 51.32C76.08 45.96 75.9 45.03 75.34 43.9C74.94 43.12 74.29 42.25 73.89 41.98C73.49 41.71 72.7 41.34 72.14 41.15C71.5 40.93 69.09 40.81 65.71 40.82C61.1 40.83 60.12 40.91 59.03 41.37ZM85.14 41.27C84.49 41.5 83.72 41.92 83.43 42.2C83.13 42.48 82.6 43.24 82.26 43.88C81.65 45.01 81.63 45.38 81.56 58.31C81.51 66.14 81.6 71.99 81.76 72.59C81.92 73.16 82.34 74.06 82.71 74.61C83.08 75.16 83.91 75.88 84.55 76.21C85.63 76.77 86.2 76.82 91.85 76.82C97.5 76.82 98.08 76.77 99.16 76.21C99.8 75.88 100.63 75.16 100.99 74.61C101.36 74.06 101.79 73.16 101.94 72.59C102.1 72.02 102.22 66.02 102.22 58.89C102.22 50.63 102.11 45.8 101.9 45.04C101.72 44.4 101.23 43.43 100.81 42.87C100.38 42.32 99.51 41.64 98.86 41.35C97.87 40.91 96.85 40.83 92 40.84C87.74 40.84 86.01 40.95 85.14 41.27ZM111.42 41.37C110.78 41.66 109.97 42.22 109.61 42.6C109.26 42.98 108.74 43.82 108.44 44.46C107.96 45.53 107.91 46.9 107.84 61.01L107.77 76.38L115.66 76.38L115.66 64.72L120.91 64.72L120.91 76.38L128.8 76.38L128.65 45.63C127.15 42.5 126.84 42.18 125.51 41.54C124.04 40.84 123.78 40.81 118.29 40.82C113.38 40.83 112.43 40.9 111.42 41.37Z" />
		<path class="shp0" d="M89.96 46C89.71 46.08 89.42 46.3 89.3 46.47C89.18 46.65 89.08 52.24 89.08 58.89C89.07 68.28 89.15 71.07 89.44 71.36C89.67 71.59 90.59 71.73 91.87 71.72C93.13 71.72 94.07 71.58 94.28 71.36C94.55 71.08 94.64 68.01 94.63 58.89C94.62 51.78 94.51 46.61 94.34 46.36C94.15 46.05 93.52 45.91 92.23 45.89C91.22 45.87 90.2 45.92 89.96 46ZM116.53 46.03L115.8 46.24L115.66 58.89L120.91 58.89C120.91 46.65 120.89 46.34 120.33 46.06C120.01 45.9 119.19 45.79 118.5 45.8C117.82 45.82 116.93 45.92 116.53 46.03Z" />
		<path class="shp2" d="M49.99 145.13C50.09 159.66 50.1 159.94 50.74 161.37C51.1 162.18 52.07 163.49 52.93 164.31C53.81 165.16 55.48 166.3 56.81 166.97C58.09 167.62 60.59 168.75 62.36 169.49C64.12 170.24 66.42 171.36 67.47 171.99C68.61 172.68 69.4 173 69.44 172.79C69.49 172.6 69.06 165.69 68.49 157.43C67.93 149.18 67.43 142.38 67.39 142.34C67.35 142.29 66.47 142.4 65.42 142.58C64.38 142.76 62.93 142.82 62.21 142.71C61.49 142.6 60.57 142.33 60.17 142.12C59.76 141.91 59.08 141.37 58.65 140.92C58.21 140.46 57.66 139.6 57.41 138.99C57.13 138.32 56.96 137.04 56.96 135.64C56.96 134.4 57.1 132.79 57.25 132.07C57.41 131.35 57.51 130.74 57.47 130.73C57.42 130.71 55.7 130.62 53.64 130.52L49.88 130.36L49.99 145.13ZM129.75 130.53C127.05 130.6 126.77 130.66 126.92 131.12C127.01 131.4 127.23 132.49 127.41 133.53C127.66 134.97 127.66 135.88 127.39 137.32C127.2 138.36 126.72 139.7 126.32 140.31C125.92 140.91 125.03 141.69 124.35 142.04C123.5 142.47 122.55 142.68 121.35 142.69C120.39 142.7 118.98 142.61 118.21 142.49L116.83 142.27C116.8 144.19 116.36 151.12 115.83 158.89C115.3 166.67 114.91 173.06 114.97 173.1C115.03 173.15 115.43 172.93 115.88 172.63C116.32 172.33 117.4 171.72 118.29 171.27C119.17 170.83 121.73 169.66 123.98 168.68C126.23 167.7 128.85 166.37 129.79 165.73C130.74 165.1 131.87 164.12 132.31 163.56C132.74 163 133.3 162.14 133.54 161.66C133.79 161.18 134.13 160.1 134.31 159.26C134.53 158.25 134.64 153.04 134.64 144.02L134.64 130.32C133.17 130.42 131.4 130.48 129.75 130.53Z" />
	</g>
</svg>