<?xml version="1.0" encoding="utf-8"?>
<!-- Generator: Adobe Illustrator 27.1.1, SVG Export Plug-In . SVG Version: 6.00 Build 0)  -->
<svg version="1.1" id="Layer_1" xmlns="http://www.w3.org/2000/svg" xmlns:xlink="http://www.w3.org/1999/xlink" x="0px" y="0px"
	 viewBox="0 0 1080 1080" style="enable-background:new 0 0 1080 1080;" xml:space="preserve">
<style type="text/css">
	.st0{fill:#FFFFFF;}
</style>
<g>
	<path id="Light_Grey_1_" class="st0" d="M392.1,896.8c-22.4,27.2-23.6,38.9-0.6,67.7c32.1,40.3,71.7,66.4,126.6,55.1
		c9.8-2,19.2-5.9,31.3-9.8c7.8,3.8,17.5,8.5,28.3,13.7c-44.7,27.8-111.6,32.6-147,9.1c-40.2-26.7-78.2-55-99-100.3
		c-5.7-12.3-8.4-26-12.1-37.6C343.7,874.8,378.2,877.1,392.1,896.8z M101.6,296c-29.3,33.8-47.5,73.3-52.1,118.2
		c-2.1,19.9,0.3,39.4,13,57.6c6.1-7.9,10.7-16,12.1-24.6c1.6-9.8-0.2-20.1,0.4-30.2c3.3-57.1,32.8-98,81.1-125.4
		c23-13.1,48-0.6,55.7,24.1c0.9,3,3,5.6,4.4,8.1c26.7-5.7,39-26.2,34.5-56.1C209.4,242.9,136.1,256.1,101.6,296z M450.3,49.9
		c-57.4-3.1-103.5,19.4-144,61.6c21.9,10.2,35.4-0.5,48.1-11.2C395,66.4,440,69.9,486,84.7c8.8,2.8,16.8,9,24.1,15
		c14.8,12,18.3,27.9,11.3,45.2c-1.4,3.5-2.7,6.9-4,10.2c33.4,20.7,48,18.4,71.5-10.9C574.1,99.5,505,52.9,450.3,49.9z M459.4,202.9
		c-80.7,46.2-161.7,92.1-242.2,138.7c-16.8,9.7-32.2,21.9-48.9,33.4c1.7,9.2,3.2,16.9,4.3,22.7c110.3-65.1,219.2-129.3,329.3-194.2
		C487.2,197.5,473.5,194.9,459.4,202.9z M236.8,729.4c49.8,56.4,102.8,109.4,160.9,157.1c22,18,44.7,35,68.2,53.3
		c7.5-5.7,13.2-10,20.2-15.4c-97.2-74.3-182.3-157.1-260.9-251.7C222.6,695.9,222.1,712.7,236.8,729.4z M391,147.8
		c-13.7,15.4-27.2,31.5-43.3,44.1c-20.7,16.3-36.5,8.4-41-17.9c-0.4-2.6-1.4-5.2-2.7-9.9c-9,2.2-17.2,4.2-26,6.3
		c-0.8,28.4-10.5,54.6-0.3,82.6c23.2,1.4,45.3-1.6,62.5-15.8c20.5-17,38.7-36.8,56.9-56.4c20.9-22.5,40.6-46.2,61.2-69
		c4.9-5.5,11.4-9.6,20.1-16.7c-13.7-3.7-23.6-6.4-34.7-9.4C425.2,107.8,408.5,128.2,391,147.8z M894.5,329.8
		c1.3-1.9,3.1-4.1,4.2-6.6c1.7-3.5,3.3-7.2,4.2-10.9c11.9-47.6,5.3-94.1-14.9-137.5c-25.2-53.9-97.4-76.5-149-69.1
		c3.4,16.8,15.8,19,30,20.2c58.7,4.9,99.2,39.4,111.9,94.6c9.3,40.4-7.5,65.2-49.1,70.4C835.8,322.3,856.5,335,894.5,329.8z
		 M699.1,940.5c23.5,4.9,47.1,10.9,70.9,12.2c51.7,2.8,97.9-10.2,130.2-54.7c14.7-20.2,27-41.6,33-68.5c-16.3,5-28.2,10.3-34.8,24.8
		c-24.8,54.5-74,70.5-127.4,76.6c-34.4,3.9-50.7-15.5-48-50.5c0.1-1.4-1.1-3-1.7-4.3c-23.7-3-39.3,15.1-46,54.5
		C682.9,933.8,690.7,938.7,699.1,940.5z M1005.1,452.6c7.4,11.6,16.1,23.5,19.2,36.4c11.8,50.3-8.5,90.9-42.8,126
		c-14.8,15.2-28.4,14.6-43.3-0.7c-4.4-4.6-8.6-9.3-13.2-14.2c-19.5,26.2-17,50.8,8.7,72.8c13.5-6.2,30.3-10.7,43.2-20.4
		c52.3-39.3,74.6-93.8,72.9-158.1c-0.7-26.5-12.2-49.9-31.4-68.8c-4-3.9-9.4-6.5-14.8-10.1C993.1,430.1,997.7,441,1005.1,452.6z
		 M445.3,173.3c62.7,22.7,125.6,44.7,187.8,68.6c43.4,16.7,85.8,36,128.7,54c5.3,2.2,11.1,3.3,17.3,5.1c0.7-20.6-0.9-23.9-18.4-31
		c-80.4-32.9-160.9-65.9-241.6-98.2c-24.9-10-50.5-18-76.1-27c-3.6,4.4-6.6,7.7-9.2,11.2c-2.2,3-3.9,6.4-6.9,11.5
		C433.9,169.8,439.7,171.3,445.3,173.3z M123.5,348.1c2.3,22.2,6.6,44.1,10.7,66.1c3.5,18.6,10.8,36.9,11.6,55.6
		c1.3,30.4-14.1,41.1-44.3,32.2c-4.2,6.5-8.8,13.6-15.4,23.9c20.5,14.8,39.1,28.3,58.8,42.6c5.9-7.4,10.3-11.7,13.1-16.9
		c12.6-23.2,17.5-48,15.2-74.5c-4.7-55.1-28.8-107.5-20.7-166.5C129.8,319.8,121.6,329.7,123.5,348.1z M208.5,736.7
		c-2.3-122.8,17.3-243.6,34.2-364.6c-1.4-0.5-2.8-1-4.2-1.4c-7.9,5-15.9,9.9-24.6,15.4c-16.6,113.4-24.6,227.3-29.1,343.2
		c6.4,3.4,12.9,6.8,19.4,10.2C205.6,738.6,207.1,737.7,208.5,736.7z M77.4,761.1c6.5,41.1,61.1,90.9,101.8,97
		c-6-8.3-10-15.6-15.7-21.4c-9.8-10-20.4-19.3-31-28.3c-19.7-16.7-32.3-37-33.4-63.5c-1.5-36.6,7.4-69.5,32.8-99.6
		c14.2,3.8,27.8,7.5,42.7,11.6c0-9.9,0-18.1,0-28.4c-10.3-9.6-21.5-20.2-32.1-30C89.2,626.3,66.1,690.4,77.4,761.1z M816.6,896.3
		c12-30.7,20.8-62.5,31.5-93.7c3.8-11,7.8-22.5,14.6-31.7c14.9-20.3,30.9-19.8,46.6-0.5c2.4,3,5,5.8,8.4,9.7
		c6.1-3.2,11.8-6.1,20.9-10.9c-7.2-21.4-14.2-41.9-21-62.1c-52.7,9.2-78.6,42.6-94.8,85.6c-15.1,40.2-28.9,80.9-43.6,122.3
		C800.6,917.3,809.4,914.8,816.6,896.3z M896,522.3c-27.2-79.5-53.9-159.1-81.2-238.6c-5.9-17.3-13.3-34.2-20.6-52.5
		c-9.2,0.7-16.3,1.2-20.4,1.6c37.4,111.3,74.2,221,111.6,332.6C899.1,552.7,901.7,538.9,896,522.3z M476.5,886.7
		c32.4-2.4,64.9-3,97.1-6.5c67.1-7.3,134.2-15.7,201.2-24.3c16.4-2.1,21.5-11,19-24.4c-117.2,13.1-234.3,26.3-353.7,39.7
		C450.7,887.6,463.1,887.7,476.5,886.7z M624,142.2c5.8,10.8,8.9,19.2,14.1,25.9c17.6,22.3,40.4,37.8,68.7,41.8
		c33.7,4.7,67.8,6.7,101.7,10.2c19.7,2,39.4,4.6,61.1,7.2c-2.4-7.9-4.2-14-7.1-23.6c-36.5-4-73-8.5-109.6-11.7
		c-21.4-1.9-42.5-4-60.6-16.8c-12.8-9-14.3-19-5.1-31.4c2.6-3.5,5.7-6.6,9.7-11c-5.3-6.8-10.2-13.1-17.2-22.2
		C661.1,121.1,643.6,131.1,624,142.2z M730.9,822.6c23.9,1.7,28.2-0.1,38.6-14.7c3.9-5.5,7.6-11.1,11.7-16.5
		c54.7-72.6,106.8-147,148-228.3c4.5-8.9,8.3-18.1,12.7-27.7c-4.7-5.4-8.6-9.8-15.4-17.6C871.7,628.5,804.3,726.6,730.9,822.6z
		 M435.2,984.1c11-1.8,22.4-3.4,32.6-7.5c17.6-7.1,33.9-17.7,51.8-23.9c17.7-6.1,36.4-10.6,55-11.9c15-1.1,20.6,8.4,18.8,23.1
		c-0.4,3.1-0.7,6.3-1.2,10.8c9.3,2.5,17.8,4.8,29.8,8c9.8-16.7,19.4-33.1,29.5-50.3c-43-25.9-83.6-35.9-127.1-12.3
		c-17.2,9.4-33.5,20.6-51.2,29c-18.9,9-38.9,15.6-58.9,23.4C418,981.6,425.4,985.7,435.2,984.1z M231.5,869.8
		c21.2-0.2,41.1,4.1,59.9-4c0.4-3.4,0.9-5.1,0.8-6.7c-0.1-2.2-0.6-4.4-1.1-6.6c-7.6-38.6-31.9-65.3-64.2-84.5
		c-35.1-20.9-71.8-39.1-107.9-58.3c-1.1-0.6-3.1,0.3-5.8,0.6c0,7.3,0,14.3,0,24.6c18.5,10.1,38,20.9,57.7,31.3
		c16.8,8.9,34.4,16.6,50.7,26.3c27.1,16.3,27.7,32.6,1.1,53.3C225.7,854,228.5,861.6,231.5,869.8z M897.2,394.9
		c-7.3,32.3,3.6,60.9,20.7,87.4c22.4,34.8,45.7,69,68.6,103.3c0.4,0.6,2,0.4,4,0.7c9.7-10.1,13.4-21.8,5-34.3
		c-11.8-17.6-25-34.3-37.1-51.7c-10.8-15.5-22.2-30.9-31.1-47.5c-7.1-13.3-7.8-28,4.2-40.1c5.8-1,11.2-1.9,19.1-3.2
		c3.1-9,6.5-18.6,11-31.5c-17.7-6-33.1-11.1-51.9-17.4C904.5,374.3,899.6,384.3,897.2,394.9z M359.9,994.6
		c-7.5-13.5-16-24.2-32.5-25.8c-54.1-5.2-107.2-63.3-112.8-112.4c-2.1-18.3-3.1-36.6-4.7-56.1c-6.3-3.5-13-7.2-21.4-11.8
		C167.5,898.5,263,1012.3,359.9,994.6z M751.7,176.2c3.6-0.2,7.2-1,13.1-1.9c-28.7-49-57.3-95.4-106.5-123.2
		c-48.8-27.5-98.7-20.5-151.8-0.7c6.7,4.3,10.2,6.8,14,8.8c4.4,2.3,9,4.3,13.4,6.2c68.8-20.7,124.2-2.1,166.8,54.8
		c13.4,17.9,26.4,36.2,40.4,55.4C745.1,175.8,748.4,176.4,751.7,176.2z M141.8,252.9c9-2.5,17.3-4.9,24.5-6.9c2.5-3.7,4.2-6,5.7-8.3
		c37.9-62.5,91.1-93.8,165.8-82.6c8.7,1.3,17.9,0.3,26.6-1c9.7-1.5,17.9-6.1,20.5-18.2C275.9,105.8,150.4,165.8,141.8,252.9z
		 M70.3,652.8c-4.2-20-11.4-39.9-11.6-59.9c-0.2-18.5,3.7-38.6,11.6-55.3c12.5-26.5,28.7-51.5,45.3-75.9
		c12.7-18.7,14.7-24.6,2.5-42.1c-20.4,20.5-38,42.5-53.3,66.5c-24.9,39.1-37.3,81.1-29.6,127.8c4,24.5,12.4,46.7,31.8,67.1
		c3-11,5.1-19,7.3-27C72.9,653.6,71.6,653.2,70.3,652.8z M718.7,982.9c-9.5,8.4-23.5,12.6-36.2,16.2c-24,6.8-47.8,1.5-71.2-4.8
		c-21.8-5.9-42.1-14.1-60.3-28.4c-15.7-12.3-26-10.1-37.3,4.8c1.7,1.9,3.3,4.3,5.5,5.7c39.1,26.2,81.5,45.4,128.3,51.6
		c51.2,6.8,88.8-18.2,122.4-56.9C748.5,966.4,733.4,969.9,718.7,982.9z M854.4,839.9c48.8-9.5,90.9-32.5,128.7-64.4
		c43.7-37,52.8-84.8,43-138.4c-0.6-3.2-3.1-6-5.5-10.4c-6.9,7.8-12.4,14-17.3,19.6c10.9,80.7-49,147.4-115.5,158.4
		c-7.5,1.2-15.7,4.2-21.4,9c-6.9,5.8-11.6,14.4-17.2,21.7C850.9,836.9,852.6,838.4,854.4,839.9z M967,485.2
		c9.4-29.1,20.7-57.8,27.9-87.5c15.9-65.6-9.9-132.2-62.6-167.3c-3.8-2.5-8.2-4.3-14-7.2c0.4,16.9,5.8,28.4,16.1,38.2
		c6.9,6.5,13.3,13.6,18.8,21.3c22.7,31.2,26,66.7,18.8,102.9c-5.4,27.4-14.4,54-22.5,83.6c2.9,3.9,7.5,10,12,16.1
		C963.4,485.3,965.2,485.2,967,485.2z"/>
</g>
</svg>
